# xmcd
#
# Track frame offsets:
#	150
#	12496
#	25218
#	37689
#	50786
#	61697
#	75169
#	85134
#	96872
#	108228
#	118865
#	131046
#	142043
#	158492
#
# Disc length: 2284 seconds
#
# Revision: 0
# Processed by: cddbd v1.4PL0 Copyright (c) Steve Scherf et al.
# Submitted via: dBpowerAMP V4.0
#
DISCID=a908ea0e
DTITLE=John Lee Hooker - I'm in the Mood [cd 1 of 3]
DYEAR=1999
DGENRE=Blues
TTITLE0=I'm in the Mood
TTITLE1=Hobo Blues
TTITLE2=Crawlin' Kingsnake
TTITLE3=Canal Street Blues
TTITLE4=Goin' to California
TTITLE5=Whiskey and Wimmen
TTITLE6=Run On
TTITLE7=Solid Sender
TTITLE8=Sunny Land
TTITLE9=Dusty Road
TTITLE10=I'm a Stranger
TTITLE11=No Shoes
TTITLE12=Five Long Years
TTITLE13=I Like to See You Walk
EXTD=
EXTT0=
EXTT1=
EXTT2=
EXTT3=
EXTT4=
EXTT5=
EXTT6=
EXTT7=
EXTT8=
EXTT9=
EXTT10=
EXTT11=
EXTT12=
EXTT13=
PLAYORDER=
